#!OML:ASF E:\Style4\Style4.ASF
:FULLY-SPECIFIED
:DEGREES
1917
root -0.347815 18.0898 -1.98551 -0.439877 0.535906 1.00071
lowerback 5.69768 2.07221 0.350056
upperback 1.95274 2.77706 0.00106249
thorax -1.16574 1.38733 -0.377461
lowerneck -0.615904 -4.26867 -6.12835
upperneck 6.17524 -5.80052 4.49967
head 2.43119 -2.92304 2.38217
rclavicle 2.40281e-014 -1.09332e-014
rhumerus -342.116 13.9829 -419.645
rradius 103.14
rwrist 19.6156
rhand -40.2794 30.5407
rfingers 7.12502
rthumb -13.2372 0.980971
lclavicle 2.40281e-014 -1.09332e-014
lhumerus 19.1209 -20.3159 58.3984
lradius 106.072
lwrist -14.1306
lhand -32.926 26.373
lfingers 7.12502
lthumb -6.14274 56.264
rfemur -5.95948 3.85406 18.352
rtibia 20.506
rfoot -13.4084 -15.1483
rtoes -9.61649
lfemur -3.52667 -1.86969 -19.7063
ltibia 18.8882
lfoot -15.4714 12.256
ltoes -13.4207
1918
root -0.349197 18.0817 -1.99663 -0.460414 0.556834 1.00147
lowerback 5.67805 2.11513 0.378319
upperback 2.13384 2.83578 0.0464503
thorax -0.969218 1.4176 -0.345149
lowerneck -0.399846 -4.27404 -6.3307
upperneck 6.10771 -5.81869 4.60463
head 2.3832 -2.93648 2.45809
rclavicle -1.47101e-014 -1.07344e-014
rhumerus -343.723 14.6593 -420.868
rradius 102.388
rwrist 20.0378
rhand -39.8573 30.4363
rfingers 7.12502
rthumb -12.8302 0.850585
lclavicle -1.47101e-014 -1.07344e-014
lhumerus 17.6213 -21.2701 59.7025
lradius 105.28
lwrist -14.09
lhand -32.9578 26.1314
lfingers 7.12502
lthumb -6.17347 56.0215
rfemur -6.1545 3.71222 18.3491
rtibia 20.8222
rfoot -13.4808 -15.0343
rtoes -9.76063
lfemur -3.7555 -1.7795 -19.6908
ltibia 19.2503
lfoot -15.6151 12.1147
ltoes -13.1371
1919
root -0.349642 18.0752 -2.00419 -0.486586 0.583893 1.0022
lowerback 5.85442 2.11144 0.382258
upperback 2.17621 2.83201 0.082214
thorax -1.02537 1.41543 -0.316717
lowerneck -0.193775 -4.23648 -6.366
upperneck 6.17912 -5.77912 4.57826
head 2.36733 -2.92075 2.46052
rclavicle -5.61567e-015 1.39149e-015
rhumerus -345.366 15.3853 -422.228
rradius 101.452
rwrist 20.3947
rhand -39.3015 30.3607
rfingers 7.12502
rthumb -12.2943 0.742146
lclavicle -5.61567e-015 1.39149e-015
lhumerus 15.962 -22.148 60.9797
lradius 104.272
lwrist -14.394
lhand -32.684 25.9503
lfingers 7.12502
lthumb -5.90911 55.8479
rfemur -6.35854 3.54585 18.3341
rtibia 21.1865
rfoot -13.632 -14.8895
rtoes -9.74021
lfemur -3.91835 -1.60236 -19.6768
ltibia 19.5227
lfoot -15.5618 11.9462
ltoes -13.2653
1920
root -0.34945 18.0675 -2.01026 -0.585312 0.64035 1.10337
lowerback 5.98044 2.08806 0.258674
upperback 2.33527 2.79434 0.115815
thorax -0.939811 1.39653 -0.212052
lowerneck -0.078797 -4.20282 -6.4248
upperneck 6.25141 -5.73864 4.54395
head 2.36892 -2.90422 2.46287
rclavicle -2.48481e-016 -8.34896e-015
rhumerus -346.805 15.976 -423.524
rradius 100.388
rwrist 20.6415
rhand -38.856 30.335
rfingers 7.12502
rthumb -11.8648 0.691195
lclavicle -2.48481e-016 -8.34896e-015
lhumerus 14.5144 -22.8636 62.1985
lradius 103.143
lwrist -14.5009
lhand -32.4505 26.219
lfingers 7.12502
lthumb -5.68372 56.1228
rfemur -6.44609 3.33738 18.2043
rtibia 21.5328
rfoot -13.8019 -14.7615
rtoes -9.81406
lfemur -3.96663 -1.53953 -19.7951
ltibia 19.7686
lfoot -15.5078 11.8666
ltoes -13.4747
1921
root -0.348926 18.061 -2.01395 -0.691657 0.697342 1.30787
lowerback 5.99048 2.11657 0.0659531
upperback 2.56906 2.82103 0.109277
thorax -0.713933 1.40963 -0.107511
lowerneck 0.00899231 -4.21563 -6.48828
upperneck 6.31941 -5.76017 4.53693
head 2.37928 -2.91771 2.47293
rclavicle 1.82385e-014 1.59028e-014
rhumerus -348.137 16.2875 -424.691
rradius 99.2512
rwrist 20.5626
rhand -38.2639 30.3561
rfingers 7.12502
rthumb -11.2938 0.680134
lclavicle 1.82385e-014 1.59028e-014
lhumerus 13.3195 -23.5474 63.4587
lradius 101.922
lwrist -14.1386
lhand -32.2437 26.586
lfingers 7.12502
lthumb -5.48404 56.495
rfemur -6.49005 3.10111 17.954
rtibia 21.8551
rfoot -13.9858 -14.5784
rtoes -9.80464
lfemur -3.96758 -1.55784 -20.0423
ltibia 19.9896
lfoot -15.5982 11.8192
ltoes -13.3351
1922
root -0.349221 18.0547 -2.02149 -0.81684 0.702641 1.37769
lowerback 6.11748 2.14834 0.0168937
upperback 2.76655 2.86078 0.157662
thorax -0.586166 1.42915 -0.0334039
lowerneck 0.0710469 -4.2237 -6.62166
upperneck 6.41062 -5.77108 4.49728
head 2.40293 -2.92818 2.48457
rclavicle 3.52346e-014 -6.36111e-015
rhumerus -349.375 16.6326 -425.704
rradius 97.9731
rwrist 20.2837
rhand -37.6393 29.9252
rfingers 7.12502
rthumb -10.6914 0.217182
lclavicle 3.52346e-014 -6.36111e-015
lhumerus 12.1071 -24.0603 64.7197
lradius 100.608
lwrist -13.594
lhand -30.8107 26.7837
lfingers 7.12502
lthumb -4.10038 56.7239
rfemur -6.54226 2.98791 17.874
rtibia 22.1687
rfoot -14.0925 -14.475
rtoes -9.74685
lfemur -3.96754 -1.57838 -20.1352
ltibia 20.2127
lfoot -15.6698 11.8295
ltoes -13.2238
1923
root -0.350437 18.0478 -2.03174 -0.952254 0.683235 1.34784
lowerback 6.43943 2.12557 0.0806237
upperback 2.84419 2.83447 0.211192
thorax -0.68444 1.41599 -0.0236917
lowerneck 0.139683 -4.19118 -6.81278
upperneck 6.68697 -5.7331 4.48958
head 2.488 -2.91643 2.51879
rclavicle -1.44119e-014 1.70955e-014
rhumerus -350.62 17.1019 -426.845
rradius 96.515
rwrist 20.015
rhand -37.1573 29.4423
rfingers 7.12502
rthumb -10.2263 -0.289123
lclavicle -1.44119e-014 1.70955e-014
lhumerus 10.8432 -24.4293 65.8205
lradius 99.126
lwrist -12.9509
lhand -29.3307 26.9399
lfingers 7.12502
lthumb -2.67113 56.9029
rfemur -6.60631 2.93449 17.9092
rtibia 22.4799
rfoot -14.1835 -14.4186
rtoes -9.85239
lfemur -3.98144 -1.58319 -20.1078
ltibia 20.4628
lfoot -15.7438 11.7967
ltoes -12.6759
1924
root -0.352493 18.04 -2.04314 -1.05635 0.692879 1.35191
lowerback 6.81968 2.13043 0.198756
upperback 2.85614 2.84741 0.141062
thorax -0.873413 1.42314 -0.177744
lowerneck 0.259179 -4.18977 -6.75242
upperneck 6.99297 -5.74661 4.49717
head 2.5675 -2.92449 2.51138
rclavicle -1.56543e-014 1.19271e-014
rhumerus -351.928 17.3505 -428.085
rradius 94.9858
rwrist 19.6145
rhand -36.5741 29.0871
rfingers 7.12502
rthumb -9.66378 -0.671215
lclavicle -1.56543e-014 1.19271e-014
lhumerus 9.7528 -25.0383 66.6194
lradius 97.7887
lwrist -12.0067
lhand -28.3727 27.4915
lfingers 7.12502
lthumb -1.7459 57.4641
rfemur -6.6949 2.87157 17.9078
rtibia 22.7615
rfoot -14.2595 -14.3647
rtoes -9.65475
lfemur -4.08042 -1.55087 -20.1069
ltibia 20.7764
lfoot -15.8731 11.7576
ltoes -12.5417
1925
root -0.35456 18.0299 -2.05573 -1.14102 0.72656 1.38752
lowerback 7.17548 2.12788 0.285575
upperback 2.87815 2.84851 0.0364338
thorax -1.03806 1.42418 -0.347727
lowerneck 0.287972 -4.19882 -6.61838
upperneck 7.32596 -5.77158 4.51668
head 2.67118 -2.93492 2.49252
rclavicle 4.91495e-014 -1.27222e-014
rhumerus -353.144 17.5064 -429.308
rradius 93.4203
rwrist 19.1321
rhand -35.9838 28.4158
rfingers 7.12502
rthumb -9.09414 -1.36817
lclavicle 4.91495e-014 -1.27222e-014
lhumerus 8.72876 -25.6355 67.2982
lradius 96.5956
lwrist -11.0061
lhand -27.1865 28.5738
lfingers 7.12502
lthumb -0.600262 58.5527
rfemur -6.79739 2.81768 17.8725
rtibia 23.0408
rfoot -14.3735 -14.3401
rtoes -9.60273
lfemur -4.21836 -1.5376 -20.1406
ltibia 21.1043
lfoot -15.9846 11.704
ltoes -12.6258
